<svg width="1182" height="287" viewBox="0 0 1182 287" fill="none" xmlns="http://www.w3.org/2000/svg">
<g clip-path="url(#clip0_72_16329)">
<rect y="-44.4287" width="56.2857" height="56.2857" stroke="white" stroke-opacity="0.1" stroke-width="1.12571"/>
<rect x="56.2856" y="-44.4287" width="56.2857" height="56.2857" stroke="white" stroke-opacity="0.1" stroke-width="1.12571"/>
<rect x="112.571" y="-44.4287" width="56.2857" height="56.2857" stroke="white" stroke-opacity="0.1" stroke-width="1.12571"/>
<rect x="168.857" y="-44.4287" width="56.2857" height="56.2857" stroke="white" stroke-opacity="0.1" stroke-width="1.12571"/>
<rect x="225.143" y="-44.4287" width="56.2857" height="56.2857" stroke="white" stroke-opacity="0.1" stroke-width="1.12571"/>
<rect x="281.428" y="-44.4287" width="56.2857" height="56.2857" stroke="white" stroke-opacity="0.1" stroke-width="1.12571"/>
<rect x="337.714" y="-44.4287" width="56.2857" height="56.2857" stroke="white" stroke-opacity="0.1" stroke-width="1.12571"/>
<rect x="394" y="-44.4287" width="56.2857" height="56.2857" stroke="white" stroke-opacity="0.1" stroke-width="1.12571"/>
<rect x="450.286" y="-44.4287" width="56.2857" height="56.2857" stroke="white" stroke-opacity="0.1" stroke-width="1.12571"/>
<rect x="506.571" y="-44.4287" width="56.2857" height="56.2857" stroke="white" stroke-opacity="0.1" stroke-width="1.12571"/>
<rect x="562.857" y="-44.4287" width="56.2857" height="56.2857" stroke="white" stroke-opacity="0.1" stroke-width="1.12571"/>
<rect x="619.143" y="-44.4287" width="56.2857" height="56.2857" stroke="white" stroke-opacity="0.1" stroke-width="1.12571"/>
<rect x="675.429" y="-44.4287" width="56.2857" height="56.2857" stroke="white" stroke-opacity="0.1" stroke-width="1.12571"/>
<rect x="731.714" y="-44.4287" width="56.2857" height="56.2857" stroke="white" stroke-opacity="0.1" stroke-width="1.12571"/>
<rect x="788" y="-44.4287" width="56.2857" height="56.2857" stroke="white" stroke-opacity="0.1" stroke-width="1.12571"/>
<rect x="844.286" y="-44.4287" width="56.2857" height="56.2857" stroke="white" stroke-opacity="0.1" stroke-width="1.12571"/>
<rect x="900.571" y="-44.4287" width="56.2857" height="56.2857" fill="white" fill-opacity="0.1" stroke="white" stroke-opacity="0.1" stroke-width="1.12571"/>
<rect x="956.857" y="-44.4287" width="56.2857" height="56.2857" stroke="white" stroke-opacity="0.1" stroke-width="1.12571"/>
<rect x="1013.14" y="-44.4287" width="56.2857" height="56.2857" stroke="white" stroke-opacity="0.1" stroke-width="1.12571"/>
<rect x="1069.43" y="-44.4287" width="56.2857" height="56.2857" stroke="white" stroke-opacity="0.1" stroke-width="1.12571"/>
<rect x="1125.71" y="-44.4287" width="56.2857" height="56.2857" stroke="white" stroke-opacity="0.1" stroke-width="1.12571"/>
<rect y="11.8574" width="56.2857" height="56.2857" stroke="white" stroke-opacity="0.1" stroke-width="1.12571"/>
<rect x="56.2858" y="11.8574" width="56.2857" height="56.2857" stroke="white" stroke-opacity="0.1" stroke-width="1.12571"/>
<rect x="112.571" y="11.8574" width="56.2857" height="56.2857" stroke="white" stroke-opacity="0.1" stroke-width="1.12571"/>
<rect x="168.857" y="11.8574" width="56.2857" height="56.2857" stroke="white" stroke-opacity="0.1" stroke-width="1.12571"/>
<rect x="225.143" y="11.8574" width="56.2857" height="56.2857" stroke="white" stroke-opacity="0.1" stroke-width="1.12571"/>
<rect x="281.429" y="11.8574" width="56.2857" height="56.2857" stroke="white" stroke-opacity="0.1" stroke-width="1.12571"/>
<rect x="337.714" y="11.8574" width="56.2857" height="56.2857" stroke="white" stroke-opacity="0.1" stroke-width="1.12571"/>
<rect x="394" y="11.8574" width="56.2857" height="56.2857" stroke="white" stroke-opacity="0.1" stroke-width="1.12571"/>
<rect x="450.286" y="11.8574" width="56.2857" height="56.2857" stroke="white" stroke-opacity="0.1" stroke-width="1.12571"/>
<rect x="506.571" y="11.8574" width="56.2857" height="56.2857" stroke="white" stroke-opacity="0.1" stroke-width="1.12571"/>
<rect x="562.857" y="11.8574" width="56.2857" height="56.2857" stroke="white" stroke-opacity="0.1" stroke-width="1.12571"/>
<rect x="619.143" y="11.8574" width="56.2857" height="56.2857" stroke="white" stroke-opacity="0.1" stroke-width="1.12571"/>
<rect x="675.429" y="11.8574" width="56.2857" height="56.2857" stroke="white" stroke-opacity="0.1" stroke-width="1.12571"/>
<rect x="731.714" y="11.8574" width="56.2857" height="56.2857" stroke="white" stroke-opacity="0.1" stroke-width="1.12571"/>
<rect x="788" y="11.8574" width="56.2857" height="56.2857" stroke="white" stroke-opacity="0.1" stroke-width="1.12571"/>
<rect x="844.286" y="11.8574" width="56.2857" height="56.2857" stroke="white" stroke-opacity="0.1" stroke-width="1.12571"/>
<rect x="900.571" y="11.8574" width="56.2857" height="56.2857" stroke="white" stroke-opacity="0.1" stroke-width="1.12571"/>
<rect x="956.857" y="11.8574" width="56.2857" height="56.2857" stroke="white" stroke-opacity="0.1" stroke-width="1.12571"/>
<rect x="1013.14" y="11.8574" width="56.2857" height="56.2857" stroke="white" stroke-opacity="0.1" stroke-width="1.12571"/>
<rect x="1069.43" y="11.8574" width="56.2857" height="56.2857" stroke="white" stroke-opacity="0.1" stroke-width="1.12571"/>
<rect x="1125.71" y="11.8574" width="56.2857" height="56.2857" stroke="white" stroke-opacity="0.1" stroke-width="1.12571"/>
<rect y="68.1436" width="56.2857" height="56.2857" stroke="white" stroke-opacity="0.1" stroke-width="1.12571"/>
<rect x="56.2856" y="68.1436" width="56.2857" height="56.2857" stroke="white" stroke-opacity="0.1" stroke-width="1.12571"/>
<rect x="112.571" y="68.1436" width="56.2857" height="56.2857" stroke="white" stroke-opacity="0.1" stroke-width="1.12571"/>
<rect x="168.857" y="68.1436" width="56.2857" height="56.2857" fill="white" fill-opacity="0.1" stroke="white" stroke-opacity="0.1" stroke-width="1.12571"/>
<rect x="225.143" y="68.1436" width="56.2857" height="56.2857" stroke="white" stroke-opacity="0.1" stroke-width="1.12571"/>
<rect x="281.428" y="68.1436" width="56.2857" height="56.2857" stroke="white" stroke-opacity="0.1" stroke-width="1.12571"/>
<rect x="337.714" y="68.1436" width="56.2857" height="56.2857" stroke="white" stroke-opacity="0.1" stroke-width="1.12571"/>
<rect x="394" y="68.1436" width="56.2857" height="56.2857" stroke="white" stroke-opacity="0.1" stroke-width="1.12571"/>
<rect x="450.286" y="68.1436" width="56.2857" height="56.2857" stroke="white" stroke-opacity="0.1" stroke-width="1.12571"/>
<rect x="506.571" y="68.1436" width="56.2857" height="56.2857" stroke="white" stroke-opacity="0.1" stroke-width="1.12571"/>
<rect x="562.857" y="68.1436" width="56.2857" height="56.2857" stroke="white" stroke-opacity="0.1" stroke-width="1.12571"/>
<rect x="619.143" y="68.1436" width="56.2857" height="56.2857" stroke="white" stroke-opacity="0.1" stroke-width="1.12571"/>
<rect x="675.429" y="68.1436" width="56.2857" height="56.2857" fill="white" fill-opacity="0.1" stroke="white" stroke-opacity="0.1" stroke-width="1.12571"/>
<rect x="731.714" y="68.1436" width="56.2857" height="56.2857" stroke="white" stroke-opacity="0.1" stroke-width="1.12571"/>
<rect x="788" y="68.1436" width="56.2857" height="56.2857" stroke="white" stroke-opacity="0.1" stroke-width="1.12571"/>
<rect x="844.286" y="68.1436" width="56.2857" height="56.2857" stroke="white" stroke-opacity="0.1" stroke-width="1.12571"/>
<rect x="900.571" y="68.1436" width="56.2857" height="56.2857" stroke="white" stroke-opacity="0.1" stroke-width="1.12571"/>
<rect x="956.857" y="68.1436" width="56.2857" height="56.2857" stroke="white" stroke-opacity="0.1" stroke-width="1.12571"/>
<rect x="1013.14" y="68.1436" width="56.2857" height="56.2857" stroke="white" stroke-opacity="0.1" stroke-width="1.12571"/>
<rect x="1069.43" y="68.1436" width="56.2857" height="56.2857" stroke="white" stroke-opacity="0.1" stroke-width="1.12571"/>
<rect x="1125.71" y="68.1436" width="56.2857" height="56.2857" stroke="white" stroke-opacity="0.1" stroke-width="1.12571"/>
<rect y="124.429" width="56.2857" height="56.2857" stroke="white" stroke-opacity="0.1" stroke-width="1.12571"/>
<rect x="56.2856" y="124.429" width="56.2857" height="56.2857" stroke="white" stroke-opacity="0.1" stroke-width="1.12571"/>
<rect x="112.571" y="124.429" width="56.2857" height="56.2857" stroke="white" stroke-opacity="0.1" stroke-width="1.12571"/>
<rect x="168.857" y="124.429" width="56.2857" height="56.2857" stroke="white" stroke-opacity="0.1" stroke-width="1.12571"/>
<rect x="225.143" y="124.429" width="56.2857" height="56.2857" stroke="white" stroke-opacity="0.1" stroke-width="1.12571"/>
<rect x="281.428" y="124.429" width="56.2857" height="56.2857" stroke="white" stroke-opacity="0.1" stroke-width="1.12571"/>
<rect x="337.714" y="124.429" width="56.2857" height="56.2857" stroke="white" stroke-opacity="0.1" stroke-width="1.12571"/>
<rect x="394" y="124.429" width="56.2857" height="56.2857" stroke="white" stroke-opacity="0.1" stroke-width="1.12571"/>
<rect x="450.286" y="124.429" width="56.2857" height="56.2857" stroke="white" stroke-opacity="0.1" stroke-width="1.12571"/>
<rect x="506.571" y="124.429" width="56.2857" height="56.2857" stroke="white" stroke-opacity="0.1" stroke-width="1.12571"/>
<rect x="562.857" y="124.429" width="56.2857" height="56.2857" stroke="white" stroke-opacity="0.1" stroke-width="1.12571"/>
<rect x="619.143" y="124.429" width="56.2857" height="56.2857" stroke="white" stroke-opacity="0.1" stroke-width="1.12571"/>
<rect x="675.429" y="124.429" width="56.2857" height="56.2857" stroke="white" stroke-opacity="0.1" stroke-width="1.12571"/>
<rect x="731.714" y="124.429" width="56.2857" height="56.2857" stroke="white" stroke-opacity="0.1" stroke-width="1.12571"/>
<rect x="788" y="124.429" width="56.2857" height="56.2857" stroke="white" stroke-opacity="0.1" stroke-width="1.12571"/>
<rect x="844.286" y="124.429" width="56.2857" height="56.2857" stroke="white" stroke-opacity="0.1" stroke-width="1.12571"/>
<rect x="900.571" y="124.429" width="56.2857" height="56.2857" stroke="white" stroke-opacity="0.1" stroke-width="1.12571"/>
<rect x="956.857" y="124.429" width="56.2857" height="56.2857" stroke="white" stroke-opacity="0.1" stroke-width="1.12571"/>
<rect x="1013.14" y="124.429" width="56.2857" height="56.2857" fill="white" fill-opacity="0.1" stroke="white" stroke-opacity="0.1" stroke-width="1.12571"/>
<rect x="1069.43" y="124.429" width="56.2857" height="56.2857" stroke="white" stroke-opacity="0.1" stroke-width="1.12571"/>
<rect x="1125.71" y="124.429" width="56.2857" height="56.2857" stroke="white" stroke-opacity="0.1" stroke-width="1.12571"/>
<rect y="180.715" width="56.2857" height="56.2857" stroke="white" stroke-opacity="0.1" stroke-width="1.12571"/>
<rect x="56.2856" y="180.715" width="56.2857" height="56.2857" stroke="white" stroke-opacity="0.1" stroke-width="1.12571"/>
<rect x="112.571" y="180.715" width="56.2857" height="56.2857" stroke="white" stroke-opacity="0.1" stroke-width="1.12571"/>
<rect x="168.857" y="180.715" width="56.2857" height="56.2857" stroke="white" stroke-opacity="0.1" stroke-width="1.12571"/>
<rect x="225.143" y="180.715" width="56.2857" height="56.2857" stroke="white" stroke-opacity="0.1" stroke-width="1.12571"/>
<rect x="281.428" y="180.715" width="56.2857" height="56.2857" stroke="white" stroke-opacity="0.1" stroke-width="1.12571"/>
<rect x="337.714" y="180.715" width="56.2857" height="56.2857" stroke="white" stroke-opacity="0.1" stroke-width="1.12571"/>
<rect x="394" y="180.715" width="56.2857" height="56.2857" stroke="white" stroke-opacity="0.1" stroke-width="1.12571"/>
<rect x="450.286" y="180.715" width="56.2857" height="56.2857" stroke="white" stroke-opacity="0.1" stroke-width="1.12571"/>
<rect x="506.571" y="180.715" width="56.2857" height="56.2857" stroke="white" stroke-opacity="0.1" stroke-width="1.12571"/>
<rect x="562.857" y="180.715" width="56.2857" height="56.2857" stroke="white" stroke-opacity="0.1" stroke-width="1.12571"/>
<rect x="619.143" y="180.715" width="56.2857" height="56.2857" stroke="white" stroke-opacity="0.1" stroke-width="1.12571"/>
<rect x="675.429" y="180.715" width="56.2857" height="56.2857" stroke="white" stroke-opacity="0.1" stroke-width="1.12571"/>
<rect x="731.714" y="180.715" width="56.2857" height="56.2857" stroke="white" stroke-opacity="0.1" stroke-width="1.12571"/>
<rect x="788" y="180.715" width="56.2857" height="56.2857" stroke="white" stroke-opacity="0.1" stroke-width="1.12571"/>
<rect x="844.286" y="180.715" width="56.2857" height="56.2857" stroke="white" stroke-opacity="0.1" stroke-width="1.12571"/>
<rect x="900.571" y="180.715" width="56.2857" height="56.2857" stroke="white" stroke-opacity="0.1" stroke-width="1.12571"/>
<rect x="956.857" y="180.715" width="56.2857" height="56.2857" stroke="white" stroke-opacity="0.1" stroke-width="1.12571"/>
<rect x="1013.14" y="180.715" width="56.2857" height="56.2857" stroke="white" stroke-opacity="0.1" stroke-width="1.12571"/>
<rect x="1069.43" y="180.715" width="56.2857" height="56.2857" stroke="white" stroke-opacity="0.1" stroke-width="1.12571"/>
<rect x="1125.71" y="180.715" width="56.2857" height="56.2857" stroke="white" stroke-opacity="0.1" stroke-width="1.12571"/>
<rect y="237" width="56.2857" height="56.2857" stroke="white" stroke-opacity="0.1" stroke-width="1.12571"/>
<rect x="56.2856" y="237" width="56.2857" height="56.2857" stroke="white" stroke-opacity="0.1" stroke-width="1.12571"/>
<rect x="112.571" y="237" width="56.2857" height="56.2857" stroke="white" stroke-opacity="0.1" stroke-width="1.12571"/>
<rect x="168.857" y="237" width="56.2857" height="56.2857" stroke="white" stroke-opacity="0.1" stroke-width="1.12571"/>
<rect x="225.143" y="237" width="56.2857" height="56.2857" stroke="white" stroke-opacity="0.1" stroke-width="1.12571"/>
<rect x="281.428" y="237" width="56.2857" height="56.2857" stroke="white" stroke-opacity="0.1" stroke-width="1.12571"/>
<rect x="337.714" y="237" width="56.2857" height="56.2857" stroke="white" stroke-opacity="0.1" stroke-width="1.12571"/>
<rect x="394" y="237" width="56.2857" height="56.2857" stroke="white" stroke-opacity="0.1" stroke-width="1.12571"/>
<rect x="450.286" y="237" width="56.2857" height="56.2857" fill="white" fill-opacity="0.1" stroke="white" stroke-opacity="0.1" stroke-width="1.12571"/>
<rect x="506.571" y="237" width="56.2857" height="56.2857" stroke="white" stroke-opacity="0.1" stroke-width="1.12571"/>
<rect x="562.857" y="237" width="56.2857" height="56.2857" stroke="white" stroke-opacity="0.1" stroke-width="1.12571"/>
<rect x="619.143" y="237" width="56.2857" height="56.2857" stroke="white" stroke-opacity="0.1" stroke-width="1.12571"/>
<rect x="675.429" y="237" width="56.2857" height="56.2857" stroke="white" stroke-opacity="0.1" stroke-width="1.12571"/>
<rect x="731.714" y="237" width="56.2857" height="56.2857" stroke="white" stroke-opacity="0.1" stroke-width="1.12571"/>
<rect x="788" y="237" width="56.2857" height="56.2857" stroke="white" stroke-opacity="0.1" stroke-width="1.12571"/>
<rect x="844.286" y="237" width="56.2857" height="56.2857" stroke="white" stroke-opacity="0.1" stroke-width="1.12571"/>
<rect x="900.571" y="237" width="56.2857" height="56.2857" stroke="white" stroke-opacity="0.1" stroke-width="1.12571"/>
<rect x="956.857" y="237" width="56.2857" height="56.2857" stroke="white" stroke-opacity="0.1" stroke-width="1.12571"/>
<rect x="1013.14" y="237" width="56.2857" height="56.2857" stroke="white" stroke-opacity="0.1" stroke-width="1.12571"/>
<rect x="1069.43" y="237" width="56.2857" height="56.2857" stroke="white" stroke-opacity="0.1" stroke-width="1.12571"/>
<rect x="1125.71" y="237" width="56.2857" height="56.2857" stroke="white" stroke-opacity="0.1" stroke-width="1.12571"/>
<rect x="-253.849" y="-420.585" width="1624.41" height="1020.63" fill="url(#paint0_radial_72_16329)" stroke="#FF524C" stroke-width="1.12571"/>
</g>
<defs>
<radialGradient id="paint0_radial_72_16329" cx="0" cy="0" r="1" gradientUnits="userSpaceOnUse" gradientTransform="translate(558.354 89.7287) rotate(90) scale(509.751 811.64)">
<stop stop-color="#F8241D" stop-opacity="0"/>
<stop offset="0.833333" stop-color="#FF2922" stop-opacity="0.6"/>
</radialGradient>
<clipPath id="clip0_72_16329">
<rect width="1182" height="756.48" fill="white" transform="translate(0 -157)"/>
</clipPath>
</defs>
</svg>
